<?xml version="1.0" encoding="utf-8"?>
<!-- Generator: Adobe Illustrator 26.5.0, SVG Export Plug-In . SVG Version: 6.00 Build 0)  -->
<svg version="1.1"
	 id="svg2" xmlns:dc="http://purl.org/dc/elements/1.1/" xmlns:cc="http://creativecommons.org/ns#" xmlns:rdf="http://www.w3.org/1999/02/22-rdf-syntax-ns#"
	 xmlns="http://www.w3.org/2000/svg" xmlns:xlink="http://www.w3.org/1999/xlink" x="0px" y="0px" viewBox="0 0 320 320"
	 style="enable-background:new 0 0 320 320;" xml:space="preserve">
<style type="text/css">
	.st0{opacity:0.36;}
	.st1{fill:url(#SVGID_1_);}
	.st2{fill:url(#SVGID_00000036937118209782525630000012843431489808636290_);}
	.st3{fill:url(#SVGID_00000151505444346408472880000003112697159658667944_);}
	.st4{opacity:0.5;}
	.st5{fill:#FFFFFF;}
	.st6{fill:url(#SVGID_00000093863742983797951520000006978140962474085028_);}
	.st7{fill:url(#SVGID_00000003787271961221777110000006757956306936465542_);}
	.st8{filter:url(#Adobe_OpacityMaskFilter);}
	.st9{fill:url(#SVGID_00000088097719812888109040000000234943598173742758_);}
	.st10{opacity:0.5;mask:url(#РОЧґ_2_00000090997462941369518520000002245011138478734763_);}
	.st11{fill:#FFD0D6;}
</style>
<g>
	<g class="st0">
		
			<image style="overflow:visible;" width="306" height="83" xlink:href="8295DD4F.png"  transform="matrix(1 0 0 1 19.1258 226.1169)">
		</image>
	</g>
	<linearGradient id="SVGID_1_" gradientUnits="userSpaceOnUse" x1="234.2616" y1="276.1094" x2="234.2616" y2="85.7634">
		<stop  offset="0" style="stop-color:#181818"/>
		<stop  offset="0.5185" style="stop-color:#4C4C4C"/>
	</linearGradient>
	<path class="st1" d="M317.4,143.9c-1.5-2.9-33.7-28.1-59.6-41.9c-36-19.2-75.5-34.4-75.5-34.4s-20.9,12.3-28.7,17.1
		c-4.1,2.5-5.2,5-4.9,7c0,0.9,0,4.6,1.9,7.6c0.9,2,65.5,29.8,77.4,35.9c3.6,1.8,5.2,3.7,5.8,5.3c-0.2,0.4-0.3,0.6-0.3,0.6L177,204.7
		c0,0.1-0.9,1.8-0.8,3.7c0.1,1.9,1.3,3.9,2.3,4.6c13.7,10,53.5,40.9,61.4,43.8c2.4,0.9,4.4,1.2,7,1.2c2.7,0.1,5-0.3,7.4-1.2
		c5.5-2,9.6-6.8,12-9.2c4.3-4.4,46.3-69.2,50.3-78.8C320.7,158.9,321,150,317.4,143.9z"/>
	<g id="еЅўзЉ¶_3_ж‹·иґќ">
		
			<linearGradient id="SVGID_00000136398232647365112860000014087311743342469531_" gradientUnits="userSpaceOnUse" x1="233.9375" y1="253.6962" x2="233.9375" y2="67.1762">
			<stop  offset="0" style="stop-color:#474747"/>
			<stop  offset="1" style="stop-color:#070707"/>
		</linearGradient>
		<path style="fill:url(#SVGID_00000136398232647365112860000014087311743342469531_);" d="M316.4,142.1c-8.3-9.9-32.1-26.8-58-40.6
			c-36.1-19.1-75.6-34.3-75.6-34.3s-20.9,12.3-28.7,17.1c-6,3.7-5.2,7.5-4,9.8c0.3,0.7,0.7,1,1,1.5c1.2,1.8,65.6,29.7,77.6,35.8
			c8.9,4.5,5.4,9.3,5.4,9.3L177.6,204c0,0.5-0.5,3.5,1.5,4.9c13.7,10,53.6,40.8,61.6,43.7c4,1.5,8,1.4,11.8,0c5.5-2,9.6-6.8,12-9.2
			c4.3-4.4,46.4-69.1,50.4-78.6C319,154.9,320,148.2,316.4,142.1z"/>
	</g>
	<g id="еЅўзЉ¶_4_00000160885665566920589760000009618350855196118161_" class="st4">
		<path class="st5" d="M220.3,88c-14.8-6.6-27.9-12-31.8-13.7c-6-2.6-7.6-1.2-7.6-1.2s-18.9,10.8-23.8,14.1c-2.1,1.4-3.2,2.1-3.4,3
			c-0.2,1.1,0.7,2.2,0.7,2.2s0.6,0.3,1.7,0.7c10.5,4.4,64.3,28.4,64.3,28.4s22.4-9.3,38.4-15.1C256.7,104.5,237.3,95.6,220.3,88z"/>
	</g>
	
		<linearGradient id="SVGID_00000011747303731189662460000004988434455058102408_" gradientUnits="userSpaceOnUse" x1="99.312" y1="199.3261" x2="99.312" y2="45.9585">
		<stop  offset="6.991470e-02" style="stop-color:#B01F1F"/>
		<stop  offset="0.5391" style="stop-color:#E74132"/>
		<stop  offset="0.932" style="stop-color:#910014"/>
	</linearGradient>
	<path style="fill:url(#SVGID_00000011747303731189662460000004988434455058102408_);" d="M190.1,131.6
		c-7.9-4.2-65.9-30.1-75.2-34.4c-4-1.9-6-3.3-6.9-4.4c0.4-0.7-0.7-1.2,0.5-3.2c1.5-2.5,13.5-8.7,24.4-14.1
		c8.1-4.1,16.6-6.9,20.2-8.3c5.4-2.1,5.5-2.9,5.8-4.5c0.1-0.6,0.3-2,0.2-3.2c0-1.1-0.3-1.3-0.3-1.3c-4.1-5-27.2-10.4-38.9-12
		c-3.8-0.5-8.7,0-8.7,0c-15.1,3-85.9,44.2-99.7,54.2c-11.7,8.5-11.6,9.7-11.5,13.6c0,0,0,2,0,2.4c0,0.5,0.1,1,0.1,1.5
		c0.6,3.1,5.9,5.5,7.8,6.6c18.8,10.2,135.7,73.9,135.7,73.9c0.9,0.4,1.8,1.1,2.6,0.9c1.1-0.2,18.9-15.4,49-50.7
		c1.9-2.2,2.6-3.6,3-5.6c0.2-1.1,0.4-2.8-0.1-4.4C197.6,136.2,195.4,134.4,190.1,131.6z"/>
	<g id="еЅўзЉ¶_5_ж‹·иґќ_00000150818272281458821170000017395518332267060401_">
		
			<linearGradient id="SVGID_00000085249706613868907290000008462529748310850707_" gradientUnits="userSpaceOnUse" x1="55.8072" y1="170.1288" x2="163.5058" y2="62.4302">
			<stop  offset="0.1871" style="stop-color:#F25743"/>
			<stop  offset="0.8536" style="stop-color:#C6011C"/>
		</linearGradient>
		<path style="fill:url(#SVGID_00000085249706613868907290000008462529748310850707_);" d="M187.5,130.2
			c-7.9-4.2-63.3-29.8-72.6-34.1c-9.3-4.3-8.3-5.3-5.1-9.3c1.8-2.3,12.6-8.9,23.5-14.4c8.1-4.1,16.5-7.4,20.1-8.7
			c8.4-3.2,5.2-6.1,5.2-6.1c-4.1-5-26.7-11.6-38.5-13.1c-3.8-0.5-8.7,0-8.7,0c-15.1,3-85.9,44.2-99.7,54.2
			c-11.7,8.5-11.4,11-11.4,14.9c0.6,3.1,5.9,5.5,7.8,6.6C26.8,130.4,143.7,194,143.7,194c0.9,0.3,1.8,1.1,2.6,0.9
			c1.7-0.5,3.2-2.1,2.6-1.7c1.9-1.2,16.2-13.7,46.4-49C199.9,138.9,200.3,137,187.5,130.2z"/>
	</g>
	<defs>
		<filter id="Adobe_OpacityMaskFilter" filterUnits="userSpaceOnUse" x="14" y="49.4" width="164.7" height="87.3">
			<feColorMatrix  type="matrix" values="1 0 0 0 0  0 1 0 0 0  0 0 1 0 0  0 0 0 1 0"/>
		</filter>
	</defs>
	
		<mask maskUnits="userSpaceOnUse" x="14" y="49.4" width="164.7" height="87.3" id="еЅўзЉ¶_2_00000119832798712169956910000007273498245849314967_">
		<g class="st8">
			
				<linearGradient id="SVGID_00000178180657989378078520000015377983706035083918_" gradientUnits="userSpaceOnUse" x1="96.2188" y1="174.2402" x2="96.2188" y2="44.3645">
				<stop  offset="0" style="stop-color:#000000"/>
				<stop  offset="0.676" style="stop-color:#FFFFFF"/>
			</linearGradient>
			
				<rect x="-0.2" y="44.4" style="fill:url(#SVGID_00000178180657989378078520000015377983706035083918_);" width="192.9" height="129.9"/>
		</g>
	</mask>
	<g id="еЅўзЉ¶_2" style="opacity:0.5;mask:url(#РОЧґ_2_00000119832798712169956910000007273498245849314967_);">
		<path class="st11" d="M130.6,111.8c-12.9-5.7-23.8-10.5-28.9-15.7c-2.5-2.6-1.1-6.4,0.9-8.7c6.5-8,30.8-22.1,42-25.4
			c4.3-1.3,3.5-3.5,3.5-3.5c-3.9-3.3-23.1-10.7-36.7-8.7c-6.9,1-80.9,41.7-93.6,53.4c-12.7,11.7,8.8,23.5,37.6,30.6
			c32.4,8,123.4-2.6,123.4-2.6C171.8,129.1,150.4,120.6,130.6,111.8z"/>
	</g>
</g>
</svg>
