<?xml version="1.0" encoding="utf-8"?>
<!-- Generator: Adobe Illustrator 26.5.0, SVG Export Plug-In . SVG Version: 6.00 Build 0)  -->
<svg version="1.1"
	 id="svg2" xmlns:dc="http://purl.org/dc/elements/1.1/" xmlns:cc="http://creativecommons.org/ns#" xmlns:rdf="http://www.w3.org/1999/02/22-rdf-syntax-ns#"
	 xmlns="http://www.w3.org/2000/svg" xmlns:xlink="http://www.w3.org/1999/xlink" x="0px" y="0px" viewBox="0 0 1543.4 320"
	 style="enable-background:new 0 0 1543.4 320;" xml:space="preserve">
<style type="text/css">
	.st0{opacity:0.36;}
	.st1{fill:url(#SVGID_1_);}
	.st2{fill:url(#SVGID_00000046322212126715574640000007778680314903918998_);}
	.st3{fill:url(#SVGID_00000134220316934701043090000014685269153257771918_);}
	.st4{opacity:0.5;}
	.st5{fill:#FFFFFF;}
	.st6{fill:url(#SVGID_00000098178977460087388380000009828490903694148769_);}
	.st7{fill:url(#SVGID_00000063593414128687648750000009156356016358550424_);}
	.st8{filter:url(#Adobe_OpacityMaskFilter);}
	.st9{fill:url(#SVGID_00000127018508146655539750000001763520766940222383_);}
	.st10{opacity:0.5;mask:url(#形状_2_00000143618476884248771700000007945619577001347002_);}
	.st11{fill:#FFD0D6;}
	.st12{fill:#C5001B;}
</style>
<g>
	<g class="st0">
		
			<image style="overflow:visible;" width="399" height="87" xlink:href="DB3AB87.png"  transform="matrix(1 0 0 1 41.7613 269.6198)">
		</image>
	</g>
	<linearGradient id="SVGID_1_" gradientUnits="userSpaceOnUse" x1="328.2722" y1="324.9932" x2="328.2722" y2="58.2358">
		<stop  offset="0" style="stop-color:#181818"/>
		<stop  offset="0.5185" style="stop-color:#4C4C4C"/>
	</linearGradient>
	<path class="st1" d="M444.7,139.7c-2.1-4.1-47.2-39.4-83.5-58.7c-50.5-26.9-105.8-48.2-105.8-48.2S226.2,50,215.3,56.8
		c-5.8,3.6-7.3,7-6.9,9.9c0,1.2,0,6.5,2.7,10.6c1.3,2.8,91.8,41.7,108.5,50.3c5,2.6,7.2,5.2,8.1,7.4c-0.2,0.6-0.4,0.9-0.4,0.9
		L248,224.9c0,0.1-1.3,2.6-1.1,5.2c0.2,2.6,1.8,5.4,3.2,6.4c19.2,14.1,75,57.3,86.1,61.4c3.3,1.2,6.2,1.7,9.8,1.6
		c3.8,0.1,7-0.4,10.3-1.6c7.6-2.7,13.4-9.5,16.8-12.9c6-6.1,64.9-97,70.5-110.4C449.4,160.8,449.8,148.2,444.7,139.7z"/>
	<g id="褰㈢姸_3_鎷疯礉">
		
			<linearGradient id="SVGID_00000054969390023157552110000000027843867276704959_" gradientUnits="userSpaceOnUse" x1="327.818" y1="293.5826" x2="327.818" y2="32.187">
			<stop  offset="0" style="stop-color:#474747"/>
			<stop  offset="1" style="stop-color:#070707"/>
		</linearGradient>
		<path style="fill:url(#SVGID_00000054969390023157552110000000027843867276704959_);" d="M443.4,137.2
			c-11.6-13.9-44.9-37.6-81.3-56.9c-50.6-26.8-106-48.1-106-48.1s-29.3,17.2-40.2,23.9c-8.5,5.2-7.3,10.5-5.7,13.7
			c0.5,1,0.9,1.4,1.4,2.1c1.7,2.5,92,41.6,108.8,50.2c12.5,6.3,7.6,13,7.6,13l-79.3,88.9c0,0.7-0.7,4.8,2,6.8
			c19.2,14,75.1,57.2,86.3,61.3c5.7,2.1,11.2,1.9,16.6,0c7.7-2.7,13.5-9.5,16.8-12.9c6-6.1,65-96.8,70.7-110.2
			C447.1,155.2,448.5,145.7,443.4,137.2z"/>
		
			<linearGradient id="SVGID_00000088842255038140721350000005095048670888829829_" gradientUnits="userSpaceOnUse" x1="395.8234" y1="33.9846" x2="395.8234" y2="33.9846">
			<stop  offset="0" style="stop-color:#474747"/>
			<stop  offset="1" style="stop-color:#070707"/>
		</linearGradient>
		<path style="fill:url(#SVGID_00000088842255038140721350000005095048670888829829_);" d="M395.8,34"/>
	</g>
	<g id="褰㈢姸_4_00000160885665566920589760000009618350855196118161_" class="st4">
		<path class="st5" d="M308.7,61.3c-20.8-9.3-39.1-16.8-44.5-19.1c-8.4-3.7-10.6-1.7-10.6-1.7s-26.4,15.1-33.4,19.8
			c-2.9,2-4.5,2.9-4.7,4.2c-0.3,1.5,1,3.2,1,3.2s0.9,0.4,2.4,1c14.7,6.1,90.1,39.8,90.1,39.8s31.4-13,53.8-21.1
			C359.7,84.5,332.5,72,308.7,61.3z"/>
	</g>
	
		<linearGradient id="SVGID_00000011007328595994796840000006820389987235405233_" gradientUnits="userSpaceOnUse" x1="139.1494" y1="217.3864" x2="139.1494" y2="2.4519">
		<stop  offset="6.991470e-02" style="stop-color:#B01F1F"/>
		<stop  offset="0.5391" style="stop-color:#E74132"/>
		<stop  offset="0.932" style="stop-color:#910014"/>
	</linearGradient>
	<path style="fill:url(#SVGID_00000011007328595994796840000006820389987235405233_);" d="M266.4,122.5
		c-11.1-5.9-92.3-42.2-105.3-48.3c-5.6-2.6-8.4-4.6-9.6-6.1c0.6-1-1-1.7,0.7-4.5c2.1-3.4,18.9-12.1,34.2-19.8
		c11.4-5.7,23.3-9.7,28.4-11.6c7.6-2.9,7.8-4.1,8.2-6.4c0.1-0.8,0.4-2.8,0.3-4.4c-0.1-1.5-0.4-1.8-0.4-1.8
		c-5.7-7-38.1-14.6-54.5-16.8c-5.3-0.7-12.3,0-12.3,0c-21.1,4.2-120.3,62-139.8,76C-0.2,90.6,0.1,92.4,0.2,97.9c0,0,0,2.8,0,3.3
		c0,0.7,0.1,1.4,0.2,2.1c0.8,4.3,8.2,7.7,10.9,9.3c26.4,14.3,190.2,103.5,190.2,103.5c1.2,0.6,2.5,1.6,3.7,1.2
		c1.6-0.2,26.4-21.6,68.7-71.1c2.7-3.1,3.6-5.1,4.2-7.8c0.2-1.6,0.5-3.9-0.1-6.2C276.9,128.9,273.7,126.4,266.4,122.5z"/>
	<g id="褰㈢姸_5_鎷疯礉_00000150818272281458821170000017395518332267060401_">
		
			<linearGradient id="SVGID_00000162354333400665918410000009757461031785318318_" gradientUnits="userSpaceOnUse" x1="78.1802" y1="176.4684" x2="229.1127" y2="25.5359">
			<stop  offset="0.1871" style="stop-color:#F25743"/>
			<stop  offset="0.8536" style="stop-color:#C6011C"/>
		</linearGradient>
		<path style="fill:url(#SVGID_00000162354333400665918410000009757461031785318318_);" d="M262.7,120.5
			c-11.1-5.9-88.8-41.7-101.8-47.8c-13-6.1-11.6-7.4-7.2-13c2.5-3.2,17.7-12.4,32.9-20.1c11.4-5.7,23.1-10.3,28.2-12.3
			c11.8-4.5,7.4-8.6,7.4-8.6c-5.7-7-37.5-16.2-53.9-18.4c-5.3-0.7-12.3,0-12.3,0c-21.1,4.2-120.3,62-139.8,76
			C-0.2,88.2,0.2,91.7,0.3,97.2c0.8,4.3,8.2,7.7,10.9,9.3C37.6,120.8,201.4,210,201.4,210c1.2,0.4,2.5,1.6,3.7,1.2
			c2.4-0.7,4.4-2.9,3.7-2.5c2.7-1.7,22.7-19.2,65-68.7C280,132.7,280.7,130.1,262.7,120.5z"/>
	</g>
	<defs>
		<filter id="Adobe_OpacityMaskFilter" filterUnits="userSpaceOnUse" x="19.6" y="7.2" width="230.8" height="122.3">
			<feColorMatrix  type="matrix" values="1 0 0 0 0  0 1 0 0 0  0 0 1 0 0  0 0 0 1 0"/>
		</filter>
	</defs>
	
		<mask maskUnits="userSpaceOnUse" x="19.6" y="7.2" width="230.8" height="122.3" id="褰㈢姸_2_00000178190726654445787710000001400854179654656903_">
		<g class="st8">
			
				<linearGradient id="SVGID_00000147904221863889153060000001244928479452087440_" gradientUnits="userSpaceOnUse" x1="134.8144" y1="182.2303" x2="134.8144" y2="0.2179">
				<stop  offset="0" style="stop-color:#000000"/>
				<stop  offset="0.676" style="stop-color:#FFFFFF"/>
			</linearGradient>
			
				<rect x="-0.4" y="0.2" style="fill:url(#SVGID_00000147904221863889153060000001244928479452087440_);" width="270.3" height="182"/>
		</g>
	</mask>
	<g id="褰㈢姸_2" style="opacity:0.5;mask:url(#形状_2_00000178190726654445787710000001400854179654656903_);">
		<path class="st11" d="M183,94.7c-18.1-8-33.4-14.7-40.5-22.1c-3.5-3.6-1.5-8.9,1.2-12.3c9.2-11.2,43.1-30.9,58.8-35.6
			c6-1.8,4.9-4.9,4.9-4.9c-5.5-4.6-32.4-15-51.5-12.3C146.3,9,42.6,66,24.8,82.5c-17.8,16.4,12.3,33,52.7,42.9
			c45.4,11.2,172.9-3.7,172.9-3.7C240.8,118.9,210.8,107,183,94.7z"/>
	</g>
</g>
<g>
	<g id="J.l._鎷疯礉">
		<path d="M533.4,187.5c0,5.6-0.6,9.5-1.7,11.8c-1.2,2.3-3,4.2-5.5,5.7c-2.5,1.6-5.9,2.3-10.3,2.3c-4.9,0-10.9-0.6-17.8-1.7v28.9
			c8.4,1.5,16.3,2.3,23.6,2.3c16.6,0,28.5-3.7,35.7-11.1c7.2-7.4,10.9-18.7,10.9-33.8V85.6h-34.8V187.5z M593.6,234.5h33.7v-33.7
			h-33.7V234.5z M689.5,85.6h-35.4v148.9h94.6V205h-59.3V85.6z M763.7,200.8v33.7h33.7v-33.7H763.7z"/>
	</g>
	<g id="Electric">
		<path class="st12" d="M811.9,234.5h106.4V205h-71v-32.5h55.8v-28h-55.8v-30.5h71V85.6H811.9V234.5z M937.8,234.5h32.5V85.6h-32.5
			V234.5z M1096.1,184.8c0-21.9-5.1-37.8-15.2-47.8c-10.2-10-22.3-15-36.5-15c-15.7,0-28.6,5.4-38.6,16.1c-10,10.8-15,24.9-15,42.4
			c0,11.8,2.5,21.9,7.5,30.3c5,8.4,11.3,14.9,19,19.3c7.7,4.4,17,6.6,28,6.6c25.2,0,41.9-12.7,50.1-38.2l-29.5-2.2
			c-2.2,11.6-8.7,17.3-19.5,17.3c-5.8,0-10.8-2-15-6c-4.2-4-6.3-9.9-6.3-17.8c0-1.5,0-3.2,0.1-5.1H1096.1z M1045.5,143.3
			c11.4,0,17.6,7.6,18.7,22.7H1025C1026.5,150.8,1033.3,143.3,1045.5,143.3z M1165.9,146.3c10.5,0,16.2,6.6,17.2,19.9l30.3-1.7
			c-0.9-12.1-5.8-22.2-14.7-30.3c-8.8-8.1-20-12.1-33.5-12.1c-16.7,0-30.1,5.4-40.1,16.1c-10,10.7-15,24.7-15,41.9s4.9,31,14.7,41.3
			c9.8,10.3,22.5,15.4,38,15.4c14.3,0,26-4,35.1-12.1c9.1-8,14.2-18.6,15.4-31.6l-30.3-1.9c-2,12.7-8,19.1-18,19.1
			c-5.2,0-9.6-1.9-13.2-5.7c-3.6-3.8-5.4-12.7-5.4-26.7C1146.6,156.9,1153.1,146.3,1165.9,146.3z M1270.3,207.8
			c-1.7-2-2.6-5.9-2.6-11.7v-46.6h23.7v-25.3h-23.7V89.6l-28.1,2.2l-2.6,32.5h-19.3v25.3h17.5v51.3c0,13.6,2.8,23,8.5,28.2
			c5.7,5.2,15.3,7.8,28.8,7.8c4.1,0,11-0.8,20.4-2.4v-24.1c-3.9,0.3-7.4,0.4-10.3,0.4C1276.1,210.8,1272,209.8,1270.3,207.8z
			 M1339.4,144.8v-20.5h-29.8v110.2h31.5v-44.8c0-8.9,1.2-16,3.5-21.3c2.3-5.3,5.3-8.9,9-11c3.7-2,8.8-3.1,15.4-3.1v-32.1
			c-2.3-0.2-4.3-0.3-5.9-0.3C1351.9,121.9,1344,129.5,1339.4,144.8z M1387.2,115h32.5V82.5h-32.5V115z M1387.2,234.5h32.5V124.3
			h-32.5V234.5z M1495,210.4c-5.2,0-9.6-1.9-13.2-5.7c-3.6-3.8-5.4-12.7-5.4-26.7c0-21.1,6.4-31.6,19.3-31.6
			c10.5,0,16.2,6.6,17.2,19.9l30.3-1.7c-0.9-12.1-5.8-22.2-14.7-30.3c-8.8-8.1-20-12.1-33.5-12.1c-16.7,0-30.1,5.4-40.1,16.1
			c-10,10.7-15,24.7-15,41.9s4.9,31,14.7,41.3c9.8,10.3,22.5,15.4,38,15.4c14.3,0,26-4,35.1-12.1c9.1-8,14.2-18.6,15.4-31.6
			l-30.3-1.9C1511.1,204,1505.1,210.4,1495,210.4z"/>
	</g>
</g>
</svg>
